<?xml version="1.0" encoding="UTF-8" ?>
<svg version="1.1" width="48" height="48" xmlns="http://www.w3.org/2000/svg" shape-rendering="crispEdges">
<rect x="17" y="15" width="3" height="1" fill="#8FB8FF" />
<rect x="28" y="15" width="3" height="1" fill="#8FB8FF" />
<rect x="16" y="16" width="1" height="1" fill="#8FB8FF" />
<rect x="17" y="16" width="3" height="1" fill="#FFFFFF" />
<rect x="20" y="16" width="1" height="1" fill="#8FB8FF" />
<rect x="27" y="16" width="1" height="1" fill="#8FB8FF" />
<rect x="28" y="16" width="3" height="1" fill="#FFFFFF" />
<rect x="31" y="16" width="1" height="1" fill="#8FB8FF" />
<rect x="15" y="17" width="1" height="7" fill="#8FB8FF" />
<rect x="16" y="17" width="1" height="4" fill="#FFFFFF" />
<rect x="20" y="17" width="1" height="1" fill="#FFFFFF" />
<rect x="21" y="17" width="1" height="1" fill="#8FB8FF" />
<rect x="26" y="17" width="1" height="1" fill="#8FB8FF" />
<rect x="27" y="17" width="1" height="1" fill="#FFFFFF" />
<rect x="31" y="17" width="1" height="4" fill="#FFFFFF" />
<rect x="32" y="17" width="1" height="7" fill="#8FB8FF" />
<rect x="21" y="18" width="1" height="1" fill="#FFFFFF" />
<rect x="22" y="18" width="4" height="1" fill="#8FB8FF" />
<rect x="26" y="18" width="1" height="1" fill="#FFFFFF" />
<rect x="22" y="19" width="4" height="1" fill="#DDEBFF" />
<rect x="16" y="21" width="1" height="3" fill="#DDEBFF" />
<rect x="31" y="21" width="1" height="3" fill="#DDEBFF" />
<rect x="14" y="24" width="1" height="6" fill="#8FB8FF" />
<rect x="15" y="24" width="1" height="6" fill="#DDEBFF" />
<rect x="20" y="24" width="1" height="1" fill="#DDEBFF" />
<rect x="21" y="24" width="1" height="2" fill="#FFD166" />
<rect x="26" y="24" width="1" height="1" fill="#DDEBFF" />
<rect x="27" y="24" width="1" height="2" fill="#FFD166" />
<rect x="32" y="24" width="1" height="6" fill="#DDEBFF" />
<rect x="33" y="24" width="1" height="6" fill="#8FB8FF" />
<rect x="16" y="25" width="2" height="1" fill="#FFFFFF" />
<rect x="20" y="25" width="1" height="1" fill="#FFD166" />
<rect x="26" y="25" width="1" height="1" fill="#FFD166" />
<rect x="30" y="25" width="2" height="1" fill="#FFFFFF" />
<rect x="23" y="26" width="2" height="1" fill="#C8B6FF" />
<rect x="16" y="27" width="2" height="1" fill="#FFFFFF" />
<rect x="30" y="27" width="2" height="1" fill="#FFFFFF" />
<rect x="20" y="28" width="1" height="1" fill="#DDEBFF" />
<rect x="23" y="28" width="1" height="1" fill="#C8B6FF" />
<rect x="24" y="28" width="1" height="1" fill="#DDEBFF" />
<rect x="27" y="28" width="1" height="1" fill="#DDEBFF" />
<rect x="16" y="29" width="2" height="1" fill="#FFFFFF" />
<rect x="21" y="29" width="1" height="1" fill="#C8B6FF" />
<rect x="22" y="29" width="1" height="1" fill="#DDEBFF" />
<rect x="25" y="29" width="1" height="1" fill="#FFFFFF" />
<rect x="26" y="29" width="1" height="1" fill="#C8B6FF" />
<rect x="30" y="29" width="2" height="1" fill="#FFFFFF" />
<rect x="15" y="30" width="1" height="1" fill="#8FB8FF" />
<rect x="16" y="30" width="1" height="1" fill="#DDEBFF" />
<rect x="31" y="30" width="1" height="1" fill="#DDEBFF" />
<rect x="32" y="30" width="1" height="1" fill="#8FB8FF" />
<rect x="16" y="31" width="1" height="1" fill="#8FB8FF" />
<rect x="17" y="31" width="2" height="1" fill="#DDEBFF" />
<rect x="29" y="31" width="2" height="1" fill="#DDEBFF" />
<rect x="31" y="31" width="1" height="1" fill="#8FB8FF" />
<rect x="17" y="32" width="2" height="1" fill="#8FB8FF" />
<rect x="19" y="32" width="3" height="1" fill="#DDEBFF" />
<rect x="26" y="32" width="3" height="1" fill="#DDEBFF" />
<rect x="29" y="32" width="2" height="1" fill="#8FB8FF" />
<rect x="19" y="33" width="3" height="1" fill="#8FB8FF" />
<rect x="22" y="33" width="4" height="1" fill="#DDEBFF" />
<rect x="26" y="33" width="3" height="1" fill="#8FB8FF" />
<rect x="22" y="34" width="4" height="1" fill="#8FB8FF" />
</svg>