<?xml version="1.0" encoding="UTF-8" ?>
<svg version="1.1" width="17" height="17" xmlns="http://www.w3.org/2000/svg" shape-rendering="crispEdges">
<rect x="8" y="0" width="1" height="2" fill="#FFFFFF" />
<rect x="7" y="2" width="1" height="2" fill="#FFFFFF" />
<rect x="8" y="2" width="1" height="2" fill="#E8F1FF" />
<rect x="9" y="2" width="1" height="2" fill="#FFFFFF" />
<rect x="6" y="4" width="1" height="2" fill="#FFFFFF" />
<rect x="7" y="4" width="1" height="2" fill="#E8F1FF" />
<rect x="8" y="4" width="1" height="9" fill="#B8DFFF" />
<rect x="9" y="4" width="1" height="2" fill="#E8F1FF" />
<rect x="10" y="4" width="1" height="2" fill="#FFFFFF" />
<rect x="3" y="6" width="3" height="1" fill="#FFFFFF" />
<rect x="6" y="6" width="1" height="1" fill="#E8F1FF" />
<rect x="7" y="6" width="1" height="5" fill="#B8DFFF" />
<rect x="9" y="6" width="1" height="5" fill="#B8DFFF" />
<rect x="10" y="6" width="1" height="1" fill="#E8F1FF" />
<rect x="11" y="6" width="3" height="1" fill="#FFFFFF" />
<rect x="1" y="7" width="2" height="1" fill="#FFFFFF" />
<rect x="3" y="7" width="3" height="1" fill="#E8F1FF" />
<rect x="6" y="7" width="1" height="3" fill="#B8DFFF" />
<rect x="10" y="7" width="1" height="3" fill="#B8DFFF" />
<rect x="11" y="7" width="3" height="1" fill="#E8F1FF" />
<rect x="14" y="7" width="2" height="1" fill="#FFFFFF" />
<rect x="0" y="8" width="1" height="1" fill="#FFFFFF" />
<rect x="1" y="8" width="2" height="1" fill="#E8F1FF" />
<rect x="3" y="8" width="3" height="1" fill="#B8DFFF" />
<rect x="11" y="8" width="3" height="1" fill="#B8DFFF" />
<rect x="14" y="8" width="2" height="1" fill="#E8F1FF" />
<rect x="16" y="8" width="1" height="1" fill="#FFFFFF" />
<rect x="1" y="9" width="2" height="1" fill="#FFFFFF" />
<rect x="3" y="9" width="3" height="1" fill="#E8F1FF" />
<rect x="11" y="9" width="3" height="1" fill="#E8F1FF" />
<rect x="14" y="9" width="2" height="1" fill="#FFFFFF" />
<rect x="3" y="10" width="3" height="1" fill="#FFFFFF" />
<rect x="6" y="10" width="1" height="1" fill="#E8F1FF" />
<rect x="10" y="10" width="1" height="1" fill="#E8F1FF" />
<rect x="11" y="10" width="3" height="1" fill="#FFFFFF" />
<rect x="6" y="11" width="1" height="2" fill="#FFFFFF" />
<rect x="7" y="11" width="1" height="2" fill="#E8F1FF" />
<rect x="9" y="11" width="1" height="2" fill="#E8F1FF" />
<rect x="10" y="11" width="1" height="2" fill="#FFFFFF" />
<rect x="7" y="13" width="1" height="2" fill="#FFFFFF" />
<rect x="8" y="13" width="1" height="2" fill="#E8F1FF" />
<rect x="9" y="13" width="1" height="2" fill="#FFFFFF" />
<rect x="8" y="15" width="1" height="2" fill="#FFFFFF" />
</svg>